<?xml version="1.0" standalone="no"?>
<!DOCTYPE svg PUBLIC "-//W3C//DTD SVG 20010904//EN"
 "http://www.w3.org/TR/2001/REC-SVG-20010904/DTD/svg10.dtd">
<svg version="1.0" xmlns="http://www.w3.org/2000/svg"
 width="500.000000pt" height="500.000000pt" viewBox="0 0 500.000000 500.000000"
 preserveAspectRatio="xMidYMid meet">
<metadata>
Created by potrace 1.14, written by Peter Selinger 2001-2017
</metadata>
<g transform="translate(0.000000,500.000000) scale(0.100000,-0.100000)"
fill="#000000" stroke="none">
<path d="M2258 4959 c-27 -4 -69 -10 -95 -12 -261 -28 -650 -160 -893 -302
-293 -172 -559 -409 -756 -675 -162 -217 -293 -475 -373 -735 -82 -265 -110
-466 -106 -755 2 -113 5 -225 9 -249 3 -24 8 -64 11 -90 3 -25 7 -57 10 -71 3
-14 7 -34 9 -45 59 -295 207 -659 353 -868 18 -26 49 -71 69 -100 110 -158
296 -353 464 -485 58 -45 111 -87 118 -93 45 -37 210 -131 337 -194 260 -128
509 -200 835 -240 30 -4 133 -8 228 -10 167 -2 363 16 497 46 28 6 61 13 75
15 157 29 436 132 600 221 119 65 262 154 288 180 7 7 17 13 20 13 4 0 19 10
32 22 14 13 46 39 70 58 79 60 242 221 332 325 118 138 262 365 345 544 59
126 133 332 148 410 2 9 8 34 14 57 14 52 31 138 37 189 3 22 7 47 9 55 17 63
24 420 11 555 -43 423 -169 786 -394 1130 -40 63 -127 182 -142 195 -3 3 -30
34 -59 70 -82 97 -213 223 -326 312 -55 43 -105 82 -111 87 -87 69 -361 216
-514 276 -142 56 -346 116 -446 130 -22 4 -46 8 -54 10 -8 2 -37 7 -65 10 -27
4 -77 10 -110 15 -73 10 -412 9 -477 -1z"/>
</g>
</svg>
